<svg width="35" height="35" viewBox="0 0 35 35" fill="none" xmlns="http://www.w3.org/2000/svg">
<g id="Frame">
<g id="Group">
<path id="Vector" d="M32.4673 17.5333C32.4673 24.9871 27.0061 31.1652 19.8673 32.2852V21.85H23.3468L24.0089 17.5333H19.8673V14.7321C19.8673 13.5509 20.4459 12.4 22.3009 12.4H24.1839V8.72498C24.1839 8.72498 22.4748 8.43331 20.8408 8.43331C17.4301 8.43331 15.2006 10.5006 15.2006 14.2433V17.5333H11.4089V21.85H15.2006V32.2852C8.06175 31.1652 2.60059 24.9871 2.60059 17.5333C2.60059 9.28614 9.28675 2.59998 17.5339 2.59998C25.7811 2.59998 32.4673 9.28614 32.4673 17.5333Z" fill="#1877F2"/>
<path id="Vector_2" d="M23.3471 21.85L24.0092 17.5333H19.8675V14.7321C19.8675 13.5511 20.4461 12.4 22.3011 12.4H24.1842V8.72499C24.1842 8.72499 22.4752 8.43332 20.8414 8.43332C17.4303 8.43332 15.2008 10.5007 15.2008 14.2433V17.5333H11.4092V21.85H15.2008V32.2852C15.9612 32.4045 16.7404 32.4667 17.5342 32.4667C18.328 32.4667 19.1072 32.4045 19.8675 32.2852V21.85H23.3471Z" fill="white"/>
</g>
</g>
</svg>
