<svg width="35" height="35" viewBox="0 0 35 35" fill="none" xmlns="http://www.w3.org/2000/svg">
<g id="Frame">
<g id="Group">
<path id="Vector" d="M17.5332 32.5333C25.8175 32.5333 32.5332 25.8176 32.5332 17.5333C32.5332 9.24902 25.8175 2.53329 17.5332 2.53329C9.24893 2.53329 2.5332 9.24902 2.5332 17.5333C2.5332 25.8176 9.24893 32.5333 17.5332 32.5333Z" fill="url(#paint0_linear_161_1179)"/>
<g id="Group_2">
<path id="Vector_2" d="M20.7194 9.19995H14.3527C11.5127 9.19995 9.20605 11.5066 9.20605 14.3466V20.7133C9.20605 23.5533 11.5127 25.86 14.3527 25.86H20.7194C23.5594 25.86 25.8661 23.5533 25.8661 20.7133V14.3466C25.8661 11.5066 23.5594 9.19995 20.7194 9.19995ZM24.0061 20.72C24.0061 22.5333 22.5327 24.0133 20.7127 24.0133H14.3461C12.5327 24.0133 11.0527 22.54 11.0527 20.72V14.3533C11.0527 12.54 12.5261 11.06 14.3461 11.06H20.7127C22.5261 11.06 24.0061 12.5333 24.0061 14.3533V20.72Z" fill="white"/>
<path id="Vector_3" d="M17.5325 13.2732C15.1858 13.2732 13.2725 15.1866 13.2725 17.5332C13.2725 19.8799 15.1858 21.7932 17.5325 21.7932C19.8791 21.7932 21.7925 19.8799 21.7925 17.5332C21.7925 15.1866 19.8791 13.2732 17.5325 13.2732ZM17.5325 20.1199C16.1058 20.1199 14.9458 18.9599 14.9458 17.5332C14.9458 16.1066 16.1058 14.9466 17.5325 14.9466C18.9591 14.9466 20.1191 16.1066 20.1191 17.5332C20.1191 18.9599 18.9591 20.1199 17.5325 20.1199Z" fill="white"/>
<path id="Vector_4" d="M22.1179 13.7403C22.5104 13.6764 22.7767 13.3064 22.7128 12.9139C22.6489 12.5214 22.2789 12.2551 21.8864 12.319C21.4939 12.3829 21.2276 12.7529 21.2915 13.1454C21.3554 13.5379 21.7254 13.8042 22.1179 13.7403Z" fill="white"/>
</g>
</g>
</g>
<defs>
<linearGradient id="paint0_linear_161_1179" x1="6.1118" y1="28.9547" x2="27.4285" y2="7.63803" gradientUnits="userSpaceOnUse">
<stop stop-color="#FEE411"/>
<stop offset="0.052" stop-color="#FEDB16"/>
<stop offset="0.138" stop-color="#FEC125"/>
<stop offset="0.248" stop-color="#FE983D"/>
<stop offset="0.376" stop-color="#FE5F5E"/>
<stop offset="0.5" stop-color="#FE2181"/>
<stop offset="1" stop-color="#9000DC"/>
</linearGradient>
</defs>
</svg>
