<svg width="35" height="35" viewBox="0 0 35 35" fill="none" xmlns="http://www.w3.org/2000/svg">
<g id="Frame">
<g id="Group">
<path id="Vector" d="M17.0006 31.3997C24.9535 31.3997 31.4006 24.9526 31.4006 16.9997C31.4006 9.0468 24.9535 2.5997 17.0006 2.5997C9.04769 2.5997 2.60059 9.0468 2.60059 16.9997C2.60059 24.9526 9.04769 31.3997 17.0006 31.3997Z" fill="#007AB9"/>
<path id="Vector_2" d="M25.6045 18.1583V24.0951H22.1625V18.5562C22.1625 17.1654 21.6655 16.2157 20.4193 16.2157C19.4682 16.2157 18.9033 16.8551 18.6538 17.4742C18.5631 17.6955 18.5398 18.0028 18.5398 18.3131V24.0949H15.0975C15.0975 24.0949 15.1437 14.7138 15.0975 13.7427H18.54V15.2097C18.5331 15.2212 18.5234 15.2325 18.5172 15.2436H18.54V15.2097C18.9975 14.5058 19.8132 13.4996 21.6422 13.4996C23.9067 13.4996 25.6045 14.9792 25.6045 18.1583ZM11.4966 8.75256C10.3192 8.75256 9.54883 9.52547 9.54883 10.5409C9.54883 11.5349 10.2968 12.3301 11.4514 12.3301H11.4738C12.6743 12.3301 13.4208 11.5349 13.4208 10.5409C13.3979 9.52547 12.6743 8.75256 11.4966 8.75256ZM9.75341 24.0951H13.1944V13.7427H9.75341V24.0951Z" fill="#F1F2F2"/>
</g>
</g>
</svg>
