<svg width="48" height="48" viewBox="0 0 48 48" fill="none" xmlns="http://www.w3.org/2000/svg">
<g id="Frame" clip-path="url(#clip0_161_1223)">
<g id="Group">
<path id="Vector" d="M41.402 23.2119L40.3278 20.1601L28.7427 31.7456C27.6108 32.8798 26.1028 33.5033 24.5007 33.5033C22.8991 33.5033 21.3911 32.8798 20.2591 31.7456L11.7595 23.246C10.6254 22.1141 10.0014 20.6061 10.0014 19.0044C10.0014 17.4023 10.6254 15.8943 11.7595 14.7624C12.8914 13.6287 14.3993 13.0047 16.001 13.0047C17.6031 13.0047 19.1111 13.6287 20.243 14.7624L24.5007 19.0183L35.9083 7.61111L35.1401 5.43116L34.7863 3.31534C34.5644 1.95932 33.6702 0.835413 32.4002 0.309223C31.1243 -0.220623 29.7006 -0.0565698 28.5826 0.745418L23.025 4.76904L17.4051 0.735199C16.2772 -0.0606946 14.8494 -0.218842 13.5813 0.313347C12.3216 0.841319 11.4355 1.96326 11.2135 3.31131L10.1256 10.0848L3.31184 11.2166C1.95807 11.4388 0.834159 12.3328 0.306188 13.6027C-0.221876 14.8767 -0.057823 16.3044 0.744071 17.4224L4.76601 22.98L0.732071 28.5996C-0.0619478 29.7276 -0.221877 31.1576 0.310219 32.4235C0.840065 33.6834 1.95985 34.5693 3.30781 34.7916L10.0816 35.8814L11.2135 42.6929C11.4336 44.0449 12.3216 45.1669 13.5813 45.695C14.8513 46.2267 16.2812 46.0688 17.4193 45.2628L22.9771 41.2392L28.5826 45.2628C29.2686 45.7528 30.0665 46.0047 30.8766 46.0047C31.3903 46.0047 31.9063 45.9048 32.4002 45.699C33.6723 45.1709 34.5644 44.0471 34.7863 42.6969L35.8761 35.9235L42.6876 34.7916C44.0396 34.5694 45.1597 33.6835 45.6897 32.4234C46.2218 31.1576 46.0635 29.7276 45.2575 28.5858L41.402 23.2119Z" fill="#FFC107"/>
<path id="Vector_2" d="M24.5009 29.5037C23.989 29.5037 23.4771 29.3079 23.087 28.9178L14.5874 20.4183C13.8055 19.6364 13.8055 18.3724 14.5874 17.5906C15.3696 16.8083 16.6333 16.8083 17.4154 17.5906L24.5009 24.676L44.5857 4.59113C45.3679 3.8093 46.6317 3.8093 47.4138 4.59113C48.1956 5.37297 48.1956 6.63702 47.4138 7.41886L25.9148 28.9179C25.7293 29.1039 25.5089 29.2514 25.2663 29.3519C25.0236 29.4525 24.7635 29.5041 24.5009 29.5038V29.5037Z" fill="#607D8B"/>
</g>
</g>
<defs>
<clipPath id="clip0_161_1223">
<rect width="48" height="48" fill="white"/>
</clipPath>
</defs>
</svg>
